
<svg id="Group_4689" data-name="Group 4689" xmlns="http://www.w3.org/2000/svg" xmlns:xlink="http://www.w3.org/1999/xlink" width="1770" height="673" viewBox="0 0 1770 673">
  <defs>
    <clipPath id="clip-path">
      <rect id="Rectangle_1189" data-name="Rectangle 1189" width="1587" height="673" transform="translate(180)" fill="#264f65" stroke="#707070" stroke-width="1"/>
    </clipPath>
    <filter id="Path_17" x="20.151" y="-944.811" width="1609.004" height="1609.004" filterUnits="userSpaceOnUse">
      <feOffset dx="2" dy="3" input="SourceAlpha"/>
      <feGaussianBlur stdDeviation="13" result="blur"/>
      <feFlood flood-opacity="0.039"/>
      <feComposite operator="in" in2="blur"/>
      <feComposite in="SourceGraphic"/>
    </filter>
  </defs>
  <rect id="Rectangle_1190" data-name="Rectangle 1190" width="1770" height="225" fill="none"/>
  <g id="Mask_Group_23" data-name="Mask Group 23" transform="translate(-158)" clip-path="url(#clip-path)">
    <rect id="Rectangle_1188" data-name="Rectangle 1188" width="1587" height="673" transform="translate(180)" fill="none"/>
    <g id="Group_4688" data-name="Group 4688" transform="translate(-579.453 -1156.064)">
      <g transform="matrix(1, 0, 0, 1, 737.45, 1156.06)" filter="url(#Path_17)">
        <path id="Path_17-2" data-name="Path 17" d="M899.686,1597.19c421.626,0,765.5-343.87,765.5-765.5s-343.876-765.5-765.5-765.5-765.5,343.876-765.5,765.5,343.876,765.5,765.5,765.5Z" transform="translate(-77.03 -975)" fill="#fff" fill-rule="evenodd"/>
      </g>
      <path id="Path_19" data-name="Path 19" d="M777.788,1584.227c-364.691-58.444-643.6-374.478-643.6-755.722,0-397.3,302.74-723.865,690-761.741,364.945,58.19,643.6,374.478,643.6,755.722,0,397.3-302.74,723.865-690,761.741Z" transform="translate(649.972 180.251)" fill="#fefefe" fill-rule="evenodd"/>
      <path id="Path_20" data-name="Path 20" d="M178.931,254.7c12.792-15.551,58.444,1.5,101.831,37.622s68.224,78,55.431,93.3-58.437-1.5-101.831-37.622-68.224-78-55.431-93.3Z" transform="translate(863.704 1187.46)" fill="#f8f4ed" fill-rule="evenodd"/>
      <path id="Path_21" data-name="Path 21" d="M247.412,300.131c-1-10.034,43.895-19.312,100.328-20.568,56.433-1.5,103.087,5.524,104.089,15.551.755,10.033-44.142,19.319-100.575,20.568s-103.087-5.765-103.841-15.551Z" transform="translate(1290.973 1354.973)" fill="#f8f4ed" fill-rule="evenodd"/>
      <path id="Path_22" data-name="Path 22" d="M216.154,261.8c9.025-18.056,57.182-12.291,107.85,13.046,50.668,25.084,84.529,59.947,75.5,77.756-8.778,18.056-57.188,12.038-107.856-13.046-50.414-25.083-84.276-59.947-75.492-77.756Z" transform="translate(1096.768 1200.42)" fill="#f8f4ed" fill-rule="evenodd"/>
      <path id="Path_23" data-name="Path 23" d="M363.742,152.26c32.859,2.759,60.448,55.184,61.2,117.135,1.009,61.951-24.83,109.607-57.689,106.848s-60.448-55.431-61.2-117.135c-1-61.951,24.83-109.854,57.689-106.848Z" transform="translate(1635.432 654.322)" fill="#f8f4ed" fill-rule="evenodd"/>
      <path id="Path_24" data-name="Path 24" d="M272.582,113.349c5.772-19.312,54.176-21.824,108.357-5.771s93.554,44.649,87.783,63.962c-5.765,19.058-54.175,21.57-108.351,5.518s-93.561-44.649-87.789-63.708Z" transform="translate(1436.878 350.866)" fill="#f8f4ed" fill-rule="evenodd"/>
      <path id="Path_25" data-name="Path 25" d="M197.641,250.628C185.1,207.736,213.44,151.55,261.1,124.716c47.656-26.587,96.313-13.547,108.6,29.346,12.545,42.893-15.8,99.072-63.454,125.913-47.656,26.587-96.32,13.541-108.6-29.346Z" transform="translate(977.333 427.536)" fill="#f8f4ed" fill-rule="evenodd"/>
      <path id="Path_26" data-name="Path 26" d="M179.345,164.252c17.809-.254,32.612,39.88,33.113,89.793s-13.547,90.294-31.1,90.548S149,304.46,148.5,254.8c-.5-49.913,13.293-90.548,30.849-90.548Z" transform="translate(701.364 721.088)" fill="#f8f4ed" fill-rule="evenodd"/>
      <path id="Path_27" data-name="Path 27" d="M332.065,428.7c-11.036-5.017,6.52-57.188,39.125-116.38S439.167,208.981,449.948,214c11.036,5.017-6.52,57.188-39.125,116.634-32.606,59.192-67.97,103.087-78.758,98.07Z" transform="translate(1770.373 992.894)" fill="#f8f4ed" fill-rule="evenodd"/>
      <path id="Path_28" data-name="Path 28" d="M421.941,527.224c-1.249.508-2.505.755-3.761,1.256-90.542,25.838-186.608-32.859-214.951-131.43C177.9,308.766,216.268,218.217,289.762,182.1a20.639,20.639,0,0,1,3.761-1c90.548-26.086,186.861,32.605,214.951,131.176,25.337,88.29-12.792,178.839-86.534,214.951Z" transform="translate(985.655 779.742)" fill="#f8f4ed" fill-rule="evenodd"/>
      <path id="Path_29" data-name="Path 29" d="M122.788,167.489l3.01,20.316,19.815,5.769-18.561,9.03.752,20.818-14.3-14.8-19.564,7.023,9.782-18.31-12.792-16.3,20.316,3.512Z" transform="translate(336.027 738.92)" fill="#fefefe" fill-rule="evenodd"/>
      <path id="Path_30" data-name="Path 30" d="M150.334,264.706l3.762,23.326,22.825,6.02-21.069,10.785,1.254,23.577L140.552,311.86l-22.072,8.528,10.534-21.069-14.8-18.31,23.326,3.512Z" transform="translate(498.655 1274.271)" fill="#fefefe" fill-rule="evenodd"/>
      <path id="Path_31" data-name="Path 31" d="M420.625,58.554l8.528,22.072L452.73,81.88l-18.31,14.8,6.02,22.825-19.815-12.792L400.811,119.5l6.02-22.825-18.31-14.8L412.1,80.626Z" transform="translate(2121.243 139.038)" fill="#fefefe" fill-rule="evenodd"/>
      <path id="Path_33" data-name="Path 33" d="M52.433,300.4l2.007,5.518,6.27.5-4.766,3.762,1.5,5.769-5.016-3.261-5.267,3.261,1.5-5.769-4.766-3.762,6.271-.5Z" transform="translate(77.054 1470.835)" fill="#fefefe" fill-rule="evenodd"/>
      <path id="Path_34" data-name="Path 34" d="M432.885,276.116,436.9,286.65l11.287.5-8.779,7.274,3.01,10.785-9.531-6.27-9.531,6.27,3.01-10.785-8.778-7.274,11.287-.5Z" transform="translate(2316.769 1337.104)" fill="#fefefe" fill-rule="evenodd"/>
      <path id="Path_35" data-name="Path 35" d="M471.934,116.259l4.013,10.534,11.036.5-8.528,7.274,2.759,10.785-9.28-6.02-9.531,6.02,2.759-10.785-8.528-7.274,11.036-.5Z" transform="translate(2531.801 456.81)" fill="#fefefe" fill-rule="evenodd"/>
      <path id="Path_37" data-name="Path 37" d="M76.745,33.305l4.264,10.284,11.036.753-8.528,7.023L86.276,62.4l-9.531-6.27-9.28,6.27,2.759-11.036-8.779-7.023,11.287-.753Z" transform="translate(173.638 0)" fill="#fefefe" fill-rule="evenodd"/>
      <path id="Path_38" data-name="Path 38" d="M197.435,40.051l8.277,22.072,23.577,1.254-18.31,14.8L217.25,101,197.435,88.208,177.621,101l6.02-22.825-18.31-14.8,23.577-1.254Z" transform="translate(801.019 37.148)" fill="#fefefe" fill-rule="evenodd"/>
      <path id="Path_39" data-name="Path 39" d="M436.525,167.489l19.313,12.541L475.4,167.489l-5.769,22.323,18.059,14.8-23.326,1.254-8.277,21.571-8.528-21.571-23.075-1.254,18.059-14.548Z" transform="translate(2354.766 738.92)" fill="#fefefe" fill-rule="evenodd"/>
      <path id="Path_40" data-name="Path 40" d="M54.93,341.574,487.344,59.4,79.26,375.686Z" transform="translate(137.764 143.708)" fill="#66718d" fill-rule="evenodd"/>
      <path id="Path_41" data-name="Path 41" d="M69.087,102.973A21.707,21.707,0,0,1,81.378,144.61a22.023,22.023,0,0,1-27.088-14.8,21.65,21.65,0,0,1,14.8-26.84Z" transform="translate(129.625 378.544)" fill="#fefefe" fill-rule="evenodd"/>
      <path id="Path_42" data-name="Path 42" d="M391.219,460.376,1002.968,50.035,415.8,494.488Z" transform="translate(2171.575 92.126)" fill="#66718d" fill-rule="evenodd"/>
      <path id="Path_43" data-name="Path 43" d="M405.421,113.306a21.5,21.5,0,0,1,26.834,14.549,22.023,22.023,0,0,1-14.8,27.088,21.671,21.671,0,1,1-12.037-41.637Z" transform="translate(2127.635 435.432)" fill="#fefefe" fill-rule="evenodd"/>
      <path id="Path_46" data-name="Path 46" d="M49.611,419.516l263.11-169.3L73.94,453.878Z" transform="translate(108.471 1194.456)" fill="#66718d" fill-rule="evenodd"/>
      <path id="Path_47" data-name="Path 47" d="M63.883,276.5a21.408,21.408,0,0,1,26.84,14.549,22.023,22.023,0,0,1-14.8,27.088A21.672,21.672,0,0,1,63.883,276.5Z" transform="translate(100.466 1333.964)" fill="#fefefe" fill-rule="evenodd"/>
      <path id="Path_48" data-name="Path 48" d="M470.643,318.48l4.264,10.284,11.036.752-8.528,7.023,2.759,10.785-9.531-6.019-9.281,6.019,2.759-10.785-8.528-7.023,11.036-.752Z" transform="translate(2526.069 1570.391)" fill="#fefefe" fill-rule="evenodd"/>
    </g>
  </g>
</svg>
