<svg xmlns="http://www.w3.org/2000/svg" width="75.34" height="74.028" viewBox="0 0 75.34 74.028">
  <g id="recruitment" transform="translate(-0.586 1.044)">
    <path id="Path_11225" data-name="Path 11225" d="M17.93,53.243l-5.2,5.728-5.2-5.728a11.518,11.518,0,0,1,10.41,0Z" transform="translate(1.122 8.204)" fill="#e6e9ed"/>
    <path id="Path_11226" data-name="Path 11226" d="M25.236,63.445H2a11.582,11.582,0,0,1,3.4-8.214A11.329,11.329,0,0,1,8.413,53.07l5.2,5.728,5.2-5.728A11.588,11.588,0,0,1,25.236,63.445Z" transform="translate(0.229 8.377)" fill="#ff826e"/>
    <path id="Path_11227" data-name="Path 11227" d="M38.823,46.07a11.588,11.588,0,0,1,6.413,10.375H22a11.582,11.582,0,0,1,3.4-8.214,11.329,11.329,0,0,1,3.009-2.161l5.2,5.728Z" transform="translate(3.464 7.244)" fill="#ffda0b"/>
    <path id="Path_11228" data-name="Path 11228" d="M37.93,46.243l-5.2,5.728-5.2-5.728a11.518,11.518,0,0,1,10.41,0Z" transform="translate(4.358 7.071)" fill="#ffda0b"/>
    <path id="Path_11229" data-name="Path 11229" d="M65.236,63.445H42a11.582,11.582,0,0,1,3.4-8.214,11.329,11.329,0,0,1,3.009-2.161l5.2,5.728,5.2-5.728A11.588,11.588,0,0,1,65.236,63.445Z" transform="translate(6.7 8.377)" fill="#b4dd7f"/>
    <path id="Path_11230" data-name="Path 11230" d="M57.93,53.243l-5.2,5.728-5.2-5.728a11.518,11.518,0,0,1,10.41,0Z" transform="translate(7.593 8.204)" fill="#ccd1d9"/>
    <g id="Group_4786" data-name="Group 4786" transform="translate(8.038 40.453)">
      <circle id="Ellipse_510" data-name="Ellipse 510" cx="5.809" cy="5.809" r="5.809" transform="translate(46.471 8.133)" fill="#ffd7b4"/>
      <path id="Path_11231" data-name="Path 11231" d="M32.809,35a5.82,5.82,0,0,1,4.647,2.324,5.741,5.741,0,0,1,1.162,3.485,1.969,1.969,0,0,1-.012.267A5.806,5.806,0,0,1,27,40.809a6.363,6.363,0,0,1,.151-1.336,3.834,3.834,0,0,0,1.15.174h.488a4.006,4.006,0,0,0,4.02-4.02,2.7,2.7,0,0,0-.058-.616Z" transform="translate(-3.764 -35)" fill="#ffd7b4"/>
      <circle id="Ellipse_511" data-name="Ellipse 511" cx="5.809" cy="5.809" r="5.809" transform="translate(0 8.133)" fill="#ffd7b4"/>
    </g>
    <path id="Path_11232" data-name="Path 11232" d="M24.074,12.133,21.75,14.456,11.294,24.912l-1.162,1.162L2,17.941,15.941,4Z" transform="translate(0.229 0.438)" fill="#4360fd"/>
    <path id="Path_11233" data-name="Path 11233" d="M52.6,35.6a3.487,3.487,0,0,1-3.114,5.89,3.626,3.626,0,0,1-1.905-1.057L42,34.856V23.25a18.355,18.355,0,0,1,1.812,1.87Z" transform="translate(6.7 3.552)" fill="#ffd7b4"/>
    <path id="Path_11234" data-name="Path 11234" d="M34.386,42.033a4.042,4.042,0,0,1-2.846,1.173h-.488a3.833,3.833,0,0,1-1.15-.174,3.775,3.775,0,0,1-1.208-.593L18.272,34.853a19.878,19.878,0,0,1-2.44-2.08A20.43,20.43,0,0,1,12,27.453l-2-4L20.456,13l7.749.86a11.49,11.49,0,0,1,5,1.778L44.8,23.084a18.207,18.207,0,0,1,2.382,1.824V42.045a3.488,3.488,0,0,1-5.821,2.591,1.97,1.97,0,0,0,.012-.267,5.741,5.741,0,0,0-1.162-3.485V34.807a6.018,6.018,0,0,0-4.426-5.8L23.941,25.78v1.162L34.223,36.2a4,4,0,0,1,1.278,2.37,2.7,2.7,0,0,1,.058.616A4.042,4.042,0,0,1,34.386,42.033Z" transform="translate(1.523 1.894)" fill="#ffd7b4"/>
    <path id="Path_11235" data-name="Path 11235" d="M64.679,59.616a6.971,6.971,0,1,0-8.723,0,12.823,12.823,0,0,0-6.095,4.673V63.48a12.789,12.789,0,0,0-8.418-12,6.979,6.979,0,0,0,2.3-3.361,4.612,4.612,0,0,0,6.123-4.393V41.006L53.457,44.6a4.778,4.778,0,0,0,2.518,1.374,4.927,4.927,0,0,0,.87.079,4.647,4.647,0,0,0,4.636-4.648,4.539,4.539,0,0,0-1.293-3.211L51.4,27.721A19.748,19.748,0,0,0,46.951,23.8l-11.6-7.455a12.824,12.824,0,0,0-5.5-1.951L24.51,13.8l1.436-1.436L16.17,2.586.586,18.17l9.775,9.775L11.2,27.1l1.279,2.557a21.669,21.669,0,0,0,6.626,7.822l10.424,7.581a5.242,5.242,0,0,0,.613.378c-.017.2-.035.408-.035.613a6.961,6.961,0,0,0,2.609,5.43,12.789,12.789,0,0,0-8.418,12v.807a12.83,12.83,0,0,0-6.095-4.673,6.97,6.97,0,1,0-8.723,0,12.789,12.789,0,0,0-8.418,12v1.162H26.626V71.612a12.7,12.7,0,0,0-2.082-6.971H49.622a12.689,12.689,0,0,0-2.083,6.971v1.162H73.1V71.612a12.789,12.789,0,0,0-8.418-12ZM9.2,54.186a4.647,4.647,0,1,1,4.647,4.647A4.652,4.652,0,0,1,9.2,54.186Zm7.883,7.494-3.236,3.559-3.236-3.559a10.274,10.274,0,0,1,6.471,0ZM3.454,70.451A10.472,10.472,0,0,1,8.394,62.7l5.452,6,5.451-6a10.468,10.468,0,0,1,4.94,7.755ZM37.917,39.137a5.155,5.155,0,0,0-1.387-2.116l-8.505-7.655L37,31.814a4.841,4.841,0,0,1,3.569,4.674v3.538A6.91,6.91,0,0,0,37.917,39.137Zm20.559.626a2.325,2.325,0,0,1-2.089,3.926,2.519,2.519,0,0,1-1.286-.731l-5.238-5.237V29.5ZM3.872,18.17l12.3-12.3,6.49,6.49-12.3,12.3ZM20.477,35.6a19.482,19.482,0,0,1-2.3-1.962,19.274,19.274,0,0,1-3.618-5.02l-1.625-3.25,9.47-9.47,7.194.8a10.5,10.5,0,0,1,4.5,1.6l11.6,7.455A17.362,17.362,0,0,1,47.54,27.13v16.6a2.319,2.319,0,0,1-3.5,2,6.932,6.932,0,0,0-1.146-3.521V36.487a7.168,7.168,0,0,0-5.281-6.915L25.772,26.343a1.165,1.165,0,0,0-1.47,1.121v1.162a1.158,1.158,0,0,0,.385.863l10.288,9.258a2.858,2.858,0,0,1-1.911,4.982H32.58a2.843,2.843,0,0,1-1.68-.546Zm11.958,10.45s0-.007,0-.012c.049,0,.1.012.144.012h.483a5.173,5.173,0,0,0,5.113-4.5,4.641,4.641,0,1,1-5.742,4.5Zm7.883,7.494-3.236,3.559-3.236-3.559a10.274,10.274,0,0,1,6.471,0ZM26.69,62.318a10.472,10.472,0,0,1,4.94-7.755l5.452,6,5.451-6a10.468,10.468,0,0,1,4.94,7.755Zm28.981-8.133a4.647,4.647,0,1,1,4.647,4.647A4.652,4.652,0,0,1,55.671,54.186Zm7.883,7.494-3.236,3.559-3.236-3.559a10.274,10.274,0,0,1,6.471,0ZM49.926,70.451a10.472,10.472,0,0,1,4.94-7.755l5.452,6,5.451-6a10.468,10.468,0,0,1,4.94,7.755Z" transform="translate(0 0.209)"/>
    <g id="Path_11236" data-name="Path 11236" transform="translate(1.204 0.491)" fill="#46de60">
      <path d="M 56.22200012207031 20.93138885498047 L 55.51759719848633 20.31048774719238 L 47.71228790283203 13.43034839630127 L 46.91337966918945 12.72612857818604 L 47.66642761230469 11.97306823730469 L 50.21854782104492 9.42094898223877 L 50.86066818237305 8.778838157653809 L 51.56152725219727 9.356258392333984 L 56.11385726928711 13.10684967041016 L 68.63481140136719 0.5858886241912842 L 69.3419189453125 -0.1212113723158836 L 70.04902648925781 0.5858886241912842 L 72.60115051269531 3.138008594512939 L 73.30825042724609 3.845118522644043 L 72.60115051269531 4.552228450775146 L 56.88595962524414 20.26742935180664 L 56.22200012207031 20.93138885498047 Z" stroke="none"/>
      <path d="M 69.3419189453125 1.292999267578125 L 56.17884826660156 14.45607852935791 L 50.9256591796875 10.12805843353271 L 48.37354278564453 12.68017864227295 L 56.17884826660156 19.56031799316406 L 71.89404296875 3.845119476318359 L 69.3419189453125 1.292999267578125 M 69.3419189453125 -1.535430908203125 L 70.75613403320312 -0.1212120056152344 L 73.30825042724609 2.430908203125 L 74.72247314453125 3.845119476318359 L 73.30825042724609 5.259328842163086 L 57.59305953979492 20.97452926635742 L 56.26513671875 22.30245780944824 L 54.85634613037109 21.06064796447754 L 47.05104064941406 14.18050861358643 L 45.45321655273438 12.77207851409912 L 46.95932769775391 11.26596832275391 L 49.51145172119141 8.713849067687988 L 50.79567718505859 7.429608345031738 L 52.19739532470703 8.584468841552734 L 56.04887390136719 11.75763511657715 L 67.92770385742188 -0.1212120056152344 L 69.3419189453125 -1.535430908203125 Z" stroke="none" fill="#020b17"/>
    </g>
  </g>
</svg>
