<svg xmlns="http://www.w3.org/2000/svg" width="66.293" height="66.293" viewBox="0 0 66.293 66.293">
  <g id="dashboard_1_" data-name="dashboard (1)" transform="translate(-1 -1)">
    <g id="Group_4800" data-name="Group 4800" transform="translate(2.069 2.069)">
      <g id="Group_4787" data-name="Group 4787" transform="translate(0 7.485)">
        <path id="Path_11237" data-name="Path 11237" d="M2,9V49.631H44.77a5.346,5.346,0,0,1,10.692,0h4.277V9Z" transform="translate(-2 -9)" fill="#fff"/>
      </g>
      <g id="Group_4788" data-name="Group 4788" transform="translate(4.277 35.285)">
        <path id="Path_11238" data-name="Path 11238" d="M6,35h4.277v8.554H6Z" transform="translate(-6 -35)" fill="#fcd770"/>
      </g>
      <g id="Group_4789" data-name="Group 4789" transform="translate(12.831 37.423)">
        <path id="Path_11239" data-name="Path 11239" d="M14,37h4.277v6.415H14Z" transform="translate(-14 -37)" fill="#fcd770"/>
      </g>
      <g id="Group_4790" data-name="Group 4790" transform="translate(21.385 28.87)">
        <path id="Path_11240" data-name="Path 11240" d="M22,29h4.277V43.969H22Z" transform="translate(-22 -29)" fill="#fcd770"/>
      </g>
      <g id="Group_4791" data-name="Group 4791" transform="translate(29.939 33.146)">
        <path id="Path_11241" data-name="Path 11241" d="M34.277,33v6.971a16.115,16.115,0,0,0-1.561,3.721H30V33Z" transform="translate(-30 -33)" fill="#fcd770"/>
      </g>
      <g id="Group_4792" data-name="Group 4792" transform="translate(38.493 38.493)">
        <path id="Path_11242" data-name="Path 11242" d="M47.623,38A9.624,9.624,0,0,0,38,47.623a9.623,9.623,0,0,0,19.246,0A9.624,9.624,0,0,0,47.623,38Zm0,14.969a5.346,5.346,0,1,1,5.346-5.346A5.348,5.348,0,0,1,47.623,52.969Z" transform="translate(-38 -38)" fill="#ccd1d9"/>
      </g>
      <g id="Group_4793" data-name="Group 4793" transform="translate(34.226 52.927)">
        <path id="Path_11243" data-name="Path 11243" d="M56.229,51.5l5.56,3.208a16.038,16.038,0,0,1-27.779,0L39.57,51.5a9.615,9.615,0,0,0,16.659,0Z" transform="translate(-34.01 -51.5)" fill="#ffda0b"/>
      </g>
      <g id="Group_4794" data-name="Group 4794" transform="translate(48.116 32.077)">
        <path id="Path_11244" data-name="Path 11244" d="M63.039,48.039a15.915,15.915,0,0,1-2.149,8.019l-5.56-3.208a9.525,9.525,0,0,0,1.294-4.812A9.624,9.624,0,0,0,47,38.415V32A16.039,16.039,0,0,1,63.039,48.039Z" transform="translate(-47 -32)" fill="#fd4343"/>
      </g>
      <g id="Group_4795" data-name="Group 4795" transform="translate(32.077 32.077)">
        <path id="Path_11245" data-name="Path 11245" d="M48.039,32v6.415a9.624,9.624,0,0,0-9.623,9.623,9.525,9.525,0,0,0,1.294,4.812l-5.56,3.208A15.915,15.915,0,0,1,32,48.039,16.043,16.043,0,0,1,48.039,32Z" transform="translate(-32 -32)" fill="#46de60"/>
      </g>
      <g id="Group_4796" data-name="Group 4796" transform="translate(25.662 21.385)">
        <path id="Path_11246" data-name="Path 11246" d="M29.646,22.631a2.091,2.091,0,0,1,.631,1.508A2.138,2.138,0,1,1,28.138,22,2.091,2.091,0,0,1,29.646,22.631Z" transform="translate(-26 -22)" fill="#4360fd"/>
      </g>
      <g id="Group_4797" data-name="Group 4797" transform="translate(35.285 11.762)">
        <path id="Path_11247" data-name="Path 11247" d="M38.646,16.646A2.139,2.139,0,0,1,35,15.138a2.138,2.138,0,1,1,4.277,0A2.091,2.091,0,0,1,38.646,16.646Z" transform="translate(-35 -13)" fill="#4360fd"/>
      </g>
      <g id="Group_4798" data-name="Group 4798" transform="translate(41.7 18.177)">
        <path id="Path_11248" data-name="Path 11248" d="M44.646,19.631a2.091,2.091,0,0,1,.631,1.508,2.138,2.138,0,1,1-4.277,0,2.132,2.132,0,0,1,3.646-1.508Z" transform="translate(-41 -19)" fill="#4360fd"/>
      </g>
      <g id="Group_4799" data-name="Group 4799" transform="translate(51.324)">
        <path id="Path_11249" data-name="Path 11249" d="M56.415,2a6.415,6.415,0,1,1,0,12.831A6.413,6.413,0,0,1,50.1,9.485,5.849,5.849,0,0,1,50,8.415,6.421,6.421,0,0,1,56.415,2Z" transform="translate(-50 -2)" fill="#4360fd"/>
      </g>
    </g>
    <g id="Group_4801" data-name="Group 4801" transform="translate(1 1)">
      <path id="Path_11250" data-name="Path 11250" d="M60.878,36.852V15.884a7.481,7.481,0,1,0-8.554-7.4H1v42.77H33.132a17.1,17.1,0,1,0,27.746-14.4ZM59.808,3.138a5.346,5.346,0,1,1-5.346,5.346A5.352,5.352,0,0,1,59.808,3.138ZM3.138,10.623h49.5a7.48,7.48,0,0,0,1.184,2.336L47.283,19.5a3.1,3.1,0,0,0-2.749,0L42.38,17.344a3.178,3.178,0,0,0,.321-1.375,3.208,3.208,0,0,0-6.415,0,3.155,3.155,0,0,0,.322,1.374l-5.362,5.362a3.178,3.178,0,0,0-1.375-.321,3.208,3.208,0,1,0,3.208,3.208,3.155,3.155,0,0,0-.322-1.374l5.362-5.362a3.1,3.1,0,0,0,2.749,0l2.155,2.155a3.178,3.178,0,0,0-.321,1.375,3.208,3.208,0,1,0,6.415,0,3.155,3.155,0,0,0-.322-1.374l6.541-6.539a7.439,7.439,0,0,0,3.4,1.414V35.393a17,17,0,0,0-21.385,3.515V34.146H30.939V46.977h2.451a17.152,17.152,0,0,0-.258,2.138H3.138Zm42.77,10.692a1.069,1.069,0,1,1-1.069,1.069A1.07,1.07,0,0,1,45.908,21.316Zm-7.485-5.346a1.069,1.069,0,1,1,1.069,1.069A1.07,1.07,0,0,1,38.423,15.969Zm-7.485,9.623a1.069,1.069,0,1,1-1.069-1.069A1.07,1.07,0,0,1,30.939,25.593ZM50.185,58.739a8.554,8.554,0,1,1,8.554-8.554A8.564,8.564,0,0,1,50.185,58.739ZM35.216,41.921a16.979,16.979,0,0,0-1.271,2.918h-.867V36.285h2.138Zm13.9-6.651v4.277a10.67,10.67,0,0,0-8.67,15.026l-3.709,2.142A14.918,14.918,0,0,1,49.116,35.27Zm1.069,29.884a14.962,14.962,0,0,1-12.39-6.581l3.724-2.15a10.657,10.657,0,0,0,17.332,0l3.724,2.15A14.962,14.962,0,0,1,50.185,65.154Zm13.449-8.44-3.709-2.142a10.67,10.67,0,0,0-8.67-15.026V35.27a14.918,14.918,0,0,1,12.38,21.445Z" transform="translate(-1 -1)"/>
      <path id="Path_11251" data-name="Path 11251" d="M47.415,41a6.415,6.415,0,1,0,6.415,6.415A6.422,6.422,0,0,0,47.415,41Zm0,10.692a4.277,4.277,0,1,1,4.277-4.277A4.281,4.281,0,0,1,47.415,51.692Z" transform="translate(1.77 1.77)"/>
      <path id="Path_11252" data-name="Path 11252" d="M5,12H7.138v2.138H5Z" transform="translate(-0.723 -0.238)"/>
      <path id="Path_11253" data-name="Path 11253" d="M9,12H23.969v2.138H9Z" transform="translate(-0.446 -0.238)"/>
      <path id="Path_11254" data-name="Path 11254" d="M5,16H7.138v2.138H5Z" transform="translate(-0.723 0.039)"/>
      <path id="Path_11255" data-name="Path 11255" d="M9,16H23.969v2.138H9Z" transform="translate(-0.446 0.039)"/>
      <path id="Path_11256" data-name="Path 11256" d="M5,20H7.138v2.138H5Z" transform="translate(-0.723 0.316)"/>
      <path id="Path_11257" data-name="Path 11257" d="M9,20H23.969v2.138H9Z" transform="translate(-0.446 0.316)"/>
      <path id="Path_11258" data-name="Path 11258" d="M5,24H7.138v2.138H5Z" transform="translate(-0.723 0.593)"/>
      <path id="Path_11259" data-name="Path 11259" d="M9,24H23.969v2.138H9Z" transform="translate(-0.446 0.593)"/>
      <path id="Path_11260" data-name="Path 11260" d="M5,44.692h6.415V34H5Zm2.138-8.554H9.277v6.415H7.138Z" transform="translate(-0.723 1.285)"/>
      <path id="Path_11261" data-name="Path 11261" d="M13,44.554h6.415V36H13Zm2.138-6.415h2.138v4.277H15.138Z" transform="translate(-0.169 1.423)"/>
      <path id="Path_11262" data-name="Path 11262" d="M21,45.108h6.415V28H21Zm2.138-14.969h2.138V42.969H23.138Z" transform="translate(0.385 0.87)"/>
    </g>
  </g>
</svg>
