<svg xmlns="http://www.w3.org/2000/svg" width="71.199" height="71.199" viewBox="0 0 71.199 71.199">
  <g id="workshop" transform="translate(-1 -1)">
    <g id="Group_4828" data-name="Group 4828" transform="translate(2.148 2.148)">
      <g id="Group_4802" data-name="Group 4802" transform="translate(22.967 59.715)">
        <path id="Path_11263" data-name="Path 11263" d="M44.967,63.187H22A9.184,9.184,0,0,1,31.187,54H35.78A9.184,9.184,0,0,1,44.967,63.187Z" transform="translate(-22 -54)" fill="#ffda0b"/>
      </g>
      <g id="Group_4803" data-name="Group 4803" transform="translate(0 59.715)">
        <path id="Path_11264" data-name="Path 11264" d="M24.967,63.187H2A9.175,9.175,0,0,1,11.187,54H15.78A9.184,9.184,0,0,1,24.967,63.187Z" transform="translate(-2 -54)" fill="#4360fd"/>
      </g>
      <g id="Group_4804" data-name="Group 4804" transform="translate(45.935 59.761)">
        <path id="Path_11265" data-name="Path 11265" d="M52.932,50.7c1.906,0,3.939,3.68,3.813,3.347l.011-.011a9.2,9.2,0,0,1,8.211,9.141H42a9.2,9.2,0,0,1,8.211-9.141l.011.011C50.1,54.385,51.026,50.7,52.932,50.7Z" transform="translate(-42 -54.04)" fill="#46de60"/>
      </g>
      <g id="Group_4806" data-name="Group 4806" transform="translate(50.528 45.935)">
        <path id="Path_11267" data-name="Path 11267" d="M59.78,47.742V48.89a6.888,6.888,0,0,1-3.962,6.236,6.878,6.878,0,0,1-5.857,0A6.888,6.888,0,0,1,46,48.89V47.742A5.744,5.744,0,0,1,51.742,42h2.3A5.744,5.744,0,0,1,59.78,47.742Z" transform="translate(-46 -42)" fill="#434a54"/>
      </g>
      <g id="Group_4807" data-name="Group 4807" transform="translate(27.561 45.935)">
        <path id="Path_11268" data-name="Path 11268" d="M39.78,47.742V48.89a6.89,6.89,0,1,1-13.78,0V47.742A5.744,5.744,0,0,1,31.742,42h2.3A5.744,5.744,0,0,1,39.78,47.742Z" transform="translate(-26 -42)" fill="#434a54"/>
      </g>
      <g id="Group_4808" data-name="Group 4808" transform="translate(41.341 0)">
        <path id="Path_11269" data-name="Path 11269" d="M47.187,10.039l-1.114.276a4.616,4.616,0,0,0-3.48,4.318H41.445a3.376,3.376,0,0,0-2.285.884l-.011-.011s-.287-.792-.574-1.872A14.966,14.966,0,0,1,38,10.039a4.417,4.417,0,0,1,3.342-4.283l1.252-.31A7.747,7.747,0,0,1,49.036,2h3.043a8.9,8.9,0,0,1,8.888,8.888,8.652,8.652,0,0,1-.459,2.814l-.62,1.872a3.454,3.454,0,0,0-2.366-.942H56.374a2.3,2.3,0,0,0-2.3-2.3H49.484a2.313,2.313,0,0,1-2.3-2.3Z" transform="translate(-38 -2)" fill="#434a54"/>
      </g>
      <g id="Group_4809" data-name="Group 4809" transform="translate(4.593 45.935)">
        <path id="Path_11270" data-name="Path 11270" d="M19.78,46.594v2.3A6.89,6.89,0,1,1,6,48.89V43.148A1.152,1.152,0,0,1,7.148,42h8.039A4.592,4.592,0,0,1,19.78,46.594Z" transform="translate(-6 -42)" fill="#434a54"/>
      </g>
      <g id="Group_4810" data-name="Group 4810" transform="translate(36.748 29.341)">
        <path id="Path_11271" data-name="Path 11271" d="M44.565,32.477l3.215,7.074H34V35.807a8.056,8.056,0,0,1,6.465-7.889l1.86-.367Z" transform="translate(-34 -27.55)" fill="#42c0fa"/>
      </g>
      <g id="Group_4811" data-name="Group 4811" transform="translate(55.122 29.341)">
        <path id="Path_11272" data-name="Path 11272" d="M63.78,35.807v3.744H50l3.215-7.074,2.239-4.927,1.86.367a8.053,8.053,0,0,1,6.465,7.889Z" transform="translate(-50 -27.55)" fill="#42c0fa"/>
      </g>
      <g id="Group_4812" data-name="Group 4812" transform="translate(50.528 34.451)">
        <path id="Path_11273" data-name="Path 11273" d="M49.445,32l1.148,6.89H46L47.148,32Z" transform="translate(-46 -32)" fill="#ffda0b"/>
      </g>
      <g id="Group_4813" data-name="Group 4813" transform="translate(50.712 29.858)">
        <path id="Path_11274" data-name="Path 11274" d="M50.386,29.688l-.965,2.905h-2.3l-.965-2.905L48.273,28Z" transform="translate(-46.16 -28)" fill="#ffda0b"/>
      </g>
      <g id="Group_4814" data-name="Group 4814" transform="translate(47.313 31.546)">
        <path id="Path_11275" data-name="Path 11275" d="M47.564,32.375l-1.148,6.89L43.2,32.192l3.4-2.722Z" transform="translate(-43.2 -29.47)" fill="#42c0fa"/>
      </g>
      <g id="Group_4815" data-name="Group 4815" transform="translate(53.974 31.546)">
        <path id="Path_11276" data-name="Path 11276" d="M49.965,29.47l3.4,2.722-3.215,7.074L49,32.375Z" transform="translate(-49 -29.47)" fill="#42c0fa"/>
      </g>
      <g id="Group_4816" data-name="Group 4816" transform="translate(45.074 27.572)">
        <path id="Path_11277" data-name="Path 11277" d="M44.42,26.01,49,28.3l-2.113,1.688-3.4,2.722L41.25,27.778l.907-.184A3.452,3.452,0,0,0,44.42,26.01Z" transform="translate(-41.25 -26.01)" fill="#42c0fa"/>
      </g>
      <g id="Group_4817" data-name="Group 4817" transform="translate(52.825 27.572)">
        <path id="Path_11278" data-name="Path 11278" d="M48,28.3l4.582-2.285a3.452,3.452,0,0,0,2.262,1.585l.907.184-2.239,4.927-3.4-2.722Z" transform="translate(-48 -26.01)" fill="#42c0fa"/>
      </g>
      <g id="Group_4818" data-name="Group 4818" transform="translate(29.858 32.154)">
        <path id="Path_11279" data-name="Path 11279" d="M37.015,30a7.992,7.992,0,0,0-2.124,5.443v3.744H30.3L28,30Z" transform="translate(-28 -30)" fill="#cf9e76"/>
      </g>
      <g id="Group_4819" data-name="Group 4819" transform="translate(11.484 32.154)">
        <path id="Path_11280" data-name="Path 11280" d="M20.039,30l-2.3,9.187H12L14.3,30Z" transform="translate(-12 -30)" fill="#cf9e76"/>
      </g>
      <g id="Group_4820" data-name="Group 4820" transform="translate(2.297 4.593)">
        <path id="Path_11281" data-name="Path 11281" d="M48.029,20.929A6.876,6.876,0,0,0,49.659,23.5a6.306,6.306,0,0,0,1.39,1.068l-.011.011-.655,3.284a3.368,3.368,0,0,1-.436,1.114,3.452,3.452,0,0,1-2.262,1.585l-.907.184-1.86.367a8.02,8.02,0,0,0-4.341,2.446H4V6H44.7a4.431,4.431,0,0,0-1.654,3.445,14.967,14.967,0,0,0,.574,3.594c.287,1.079.574,1.872.574,1.872l.011.011a3.368,3.368,0,0,0-1.16,2.561,3.45,3.45,0,0,0,3.445,3.445Z" transform="translate(-4 -6)" fill="#f1f3f5"/>
      </g>
      <g id="Group_4821" data-name="Group 4821" transform="translate(25.264 11.484)">
        <path id="Path_11282" data-name="Path 11282" d="M35.484,12v9.187H26.3V16.593H24V12Z" transform="translate(-24 -12)" fill="#f840b8"/>
      </g>
      <g id="Group_4822" data-name="Group 4822" transform="translate(13.78 16.077)">
        <path id="Path_11283" data-name="Path 11283" d="M27.78,20.593v6.89H14v-6.89h4.593V16H27.78Z" transform="translate(-14 -16)" fill="#ffda0b"/>
      </g>
      <g id="Group_4823" data-name="Group 4823" transform="translate(6.89 9.187)">
        <path id="Path_11284" data-name="Path 11284" d="M19.484,16.89v4.594H8V10H19.484Z" transform="translate(-8 -10)" fill="#42c0fa"/>
      </g>
      <g id="Group_4824" data-name="Group 4824" transform="translate(48.243 23.163)">
        <path id="Path_11285" data-name="Path 11285" d="M53.174,26.58l-4.582,2.285L44.01,26.58a3.368,3.368,0,0,0,.436-1.114l.655-3.284.011-.011a6.828,6.828,0,0,0,6.959,0l.011.011.655,3.284a3.368,3.368,0,0,0,.436,1.114Z" transform="translate(-44.01 -22.17)" fill="#ffd7b4"/>
      </g>
      <g id="Group_4825" data-name="Group 4825" transform="translate(59.325 12.632)">
        <path id="Path_11286" data-name="Path 11286" d="M57.633,18.88A3.437,3.437,0,0,1,55.2,19.89H53.66a6.939,6.939,0,0,0,.39-2.3V13H55.2a3.443,3.443,0,0,1,2.435,5.88Z" transform="translate(-53.66 -13)" fill="#ffd7b4"/>
      </g>
      <g id="Group_4826" data-name="Group 4826" transform="translate(45.935 8.039)">
        <path id="Path_11287" data-name="Path 11287" d="M55.78,13.593v4.593a6.84,6.84,0,0,1-3.411,5.937,6.828,6.828,0,0,1-6.959,0,6.306,6.306,0,0,1-1.39-1.068A6.824,6.824,0,0,1,42,18.187V13.593a4.616,4.616,0,0,1,3.48-4.318L46.594,9a2.313,2.313,0,0,0,2.3,2.3h4.593a2.3,2.3,0,0,1,2.3,2.3Z" transform="translate(-42 -9)" fill="#ffd7b4"/>
      </g>
      <g id="Group_4827" data-name="Group 4827" transform="translate(41.341 12.632)">
        <path id="Path_11288" data-name="Path 11288" d="M42.593,17.593a6.939,6.939,0,0,0,.39,2.3H41.445A3.45,3.45,0,0,1,38,16.445,3.477,3.477,0,0,1,41.445,13h1.148v4.593Z" transform="translate(-38 -13)" fill="#ffd7b4"/>
      </g>
    </g>
    <g id="Group_4829" data-name="Group 4829" transform="translate(1 1)">
      <path id="Path_11289" data-name="Path 11289" d="M64.814,30.737l-2.77-.554a2.291,2.291,0,0,1-1.8-1.8l-.509-2.544a8.087,8.087,0,0,0,2.492-3.018h.787a4.6,4.6,0,0,0,4.593-4.593,4.543,4.543,0,0,0-.936-2.748l.42-1.261A10.041,10.041,0,0,0,57.564,1H54.52a8.866,8.866,0,0,0-7.129,3.583l-.837.21a5.529,5.529,0,0,0-1.777.8H3.3V35.451H14.458l-1.723,6.89H1v2.3H72.2V39.744a9.21,9.21,0,0,0-7.385-9.007Zm-33.7,4.714,1.723,6.89H20.845l1.723-6.89Zm2.368,0h5.35a9.131,9.131,0,0,0-1.079,4.293v2.6H35.2Zm6.568,4.293a6.908,6.908,0,0,1,5.539-6.756l.97-.194,4.34,9.548H40.045Zm10.673-8.582,2.137,1.068L49.9,34.6,48.85,32.3a4.568,4.568,0,0,0,1.867-1.133Zm4.576,4.289h-.641L54.2,34.1l.773-.618.773.618Zm-2.648,1.241-.482,2.893-1.286-2.831,1.412-1.13ZM54.8,37.748h.351l.766,4.593H54.032Zm2.5-1.055.356-1.068,1.412,1.13-1.286,2.831Zm3.8-4.4-1.046,2.3-2.958-2.367,2.137-1.068A4.593,4.593,0,0,0,61.1,32.3ZM57.99,28.831c.023.115.062.224.093.335l-3.11,1.556-3.111-1.555c.031-.111.07-.22.093-.335l.376-1.874a7.895,7.895,0,0,0,5.285,0Zm2.725-9.457a5.742,5.742,0,1,1-11.484,0V14.922a3.441,3.441,0,0,1,2.593-3.338,3.449,3.449,0,0,0,3.149,2.049h4.593a1.15,1.15,0,0,1,1.148,1.148Zm2.3,1.148H62.92a8.068,8.068,0,0,0,.092-1.148V15.929a2.3,2.3,0,1,1,0,4.593Zm-15.9-13.5,1.681-.42.246-.369A6.577,6.577,0,0,1,54.52,3.3h3.044A7.744,7.744,0,0,1,64.912,13.49l-.163.488a4.578,4.578,0,0,0-1.736-.346H62.8a3.44,3.44,0,0,0-3.234-2.3H54.974a1.148,1.148,0,1,1,0-2.3h1.148v-2.3H54.974a3.451,3.451,0,0,0-3.318,2.516l-.372.093A5.72,5.72,0,0,0,47.1,13.632h-.164a4.564,4.564,0,0,0-1.633.314,15.023,15.023,0,0,1-.664-3.759A3.26,3.26,0,0,1,47.111,7.02Zm-.176,8.909v3.445a8.068,8.068,0,0,0,.092,1.148h-.092a2.3,2.3,0,1,1,0-4.593ZM5.593,7.89H42.856a5.528,5.528,0,0,0-.514,2.3,19.2,19.2,0,0,0,1,5.212,4.545,4.545,0,0,0-1,2.826,4.6,4.6,0,0,0,4.593,4.594h.787a8.087,8.087,0,0,0,2.492,3.018L49.7,28.381a2.292,2.292,0,0,1-1.8,1.8l-2.77.554a9.144,9.144,0,0,0-4.579,2.417H5.594ZM16.826,35.451H20.2l-1.723,6.89H15.1ZM69.9,42.341H59.054l4.34-9.548.97.194A6.909,6.909,0,0,1,69.9,39.744Z" transform="translate(-1 -1)"/>
      <path id="Path_11290" data-name="Path 11290" d="M39.154,11.3H25.374V15.89H20.78V9H7V22.78h6.89v6.89H29.967V22.78h9.187ZM9.3,11.3h9.187v9.187H9.3ZM27.671,27.374H16.187V22.78H20.78V18.187h6.89Zm9.187-6.89h-6.89V15.89h-2.3v-2.3h9.187Z" transform="translate(-0.11 0.187)"/>
      <path id="Path_11291" data-name="Path 11291" d="M64.722,55.185a8.064,8.064,0,0,0,2.884-6.146V47.89A6.9,6.9,0,0,0,60.715,41h-2.3a6.9,6.9,0,0,0-6.89,6.89v1.148a8.065,8.065,0,0,0,2.882,6.146,10.291,10.291,0,0,0-6.336,5.2,10.374,10.374,0,0,0-6.315-5.194,8.022,8.022,0,0,0,2.878-6.154V47.89A6.9,6.9,0,0,0,37.748,41h-2.3a6.9,6.9,0,0,0-6.89,6.89v1.148a8.022,8.022,0,0,0,2.878,6.154,10.37,10.37,0,0,0-6.318,5.2,10.383,10.383,0,0,0-6.32-5.209,8.021,8.021,0,0,0,2.87-6.147v-2.3A5.748,5.748,0,0,0,15.929,41H7.89a2.3,2.3,0,0,0-2.3,2.3v5.742a8.022,8.022,0,0,0,2.878,6.154A10.347,10.347,0,0,0,1,65.116v1.148H72.2V65.116A10.3,10.3,0,0,0,64.722,55.185Zm-10.9-6.146V47.89A4.6,4.6,0,0,1,58.419,43.3h2.3a4.6,4.6,0,0,1,4.593,4.594v1.148a5.742,5.742,0,0,1-11.484,0Zm-22.967,0V47.89A4.6,4.6,0,0,1,35.451,43.3h2.3a4.6,4.6,0,0,1,4.593,4.594v1.148a5.742,5.742,0,1,1-11.484,0ZM34.3,57.077H38.9a8.045,8.045,0,0,1,7.947,6.89H26.356A8.045,8.045,0,0,1,34.3,57.077ZM7.89,49.039V43.3h8.039a3.449,3.449,0,0,1,3.445,3.445v2.3a5.742,5.742,0,1,1-11.484,0ZM3.378,63.967a8.051,8.051,0,0,1,7.957-6.89h4.593a8.051,8.051,0,0,1,7.957,6.89Zm45.943,0c.446-3.127,3.123-4.844,5.684-6.566a7.589,7.589,0,0,1,9.122,0c2.563,1.723,5.249,3.437,5.694,6.564Z" transform="translate(-1 4.935)"/>
    </g>
  </g>
</svg>
